# xmcd
#
# Track frame offsets: 
#        150
#        13433
#        25553
#        41690
#        54963
#        64958
#        82588
#        93290
#        109053
#        120043
#        132865
#        144380
#
# Disc length: 2116 seconds
#
# Revision: 12
# Processed by: cddbd v1.5.2PL0 Copyright (c) Steve Scherf et al.
# Submitted via: ExactAudioCopyFreeDBPlugin 1.0
#
DISCID=8c08420c
DTITLE=Booker T. and The MG's - Green Onions {2012,RE,EU,OAS,Rhino Recor
DTITLE=ds,8122797254}
DYEAR=1962
DGENRE=Soul
TTITLE0=Green Onions
TTITLE1=Rinky-Dink
TTITLE2=I Got A Woman
TTITLE3=Mo' Onions
TTITLE4=Twist And Shout
TTITLE5=Behave Yourself
TTITLE6=Stranger On The Shore
TTITLE7=Lonely Avenue
TTITLE8=One Who Really Loves You
TTITLE9=You Can't Sit Down
TTITLE10=A Woman, A Lover, A Friend
TTITLE11=Comin' Home Baby
EXTD=
EXTT0=
EXTT1=
EXTT2=
EXTT3=
EXTT4=
EXTT5=
EXTT6=
EXTT7=
EXTT8=
EXTT9=
EXTT10=
EXTT11=
PLAYORDER=
